.
..............................Site Info...........................

 -   http://www.scenetime.com  *_*   

SceneTime is going to Close sign up on march/1, hurry up! get in before the doors are closed.

     We care to share . Join us on  http://www.scenetime.com 

    Be the first to get new release at  http://www.scenetime.com

        Seed back for speed


...................................NFO:.................................................                                                                                                     
       
     
     
       
       
     
     
                                         
                                         
                EXVID                    
                                         
         
                                         
         Filled the Archives             
                                         
         
                                         
                With:                    
                                         
         
                                         
                                    
     E240                           
                                    
     SP               (C) 2009      
                                         
     
     
     
                                                                                  
                                                                                   
                 A.Chorus.Line.1985.iNTERNAL.DVDRip.XviD-EXViDiNT                   
                                                                                   
                                                                                  
     
                                                                                               
EXViD aims to iNTERNAL those releases which have been lost in the archives.
EXViD aims to PRE non-internal releases which have poor sources and are likely skipped by others.
 
http://www.imdb.com/title/tt0088915/
Subtitles: EN, ES
Date: 2012.02

Director: Richard Attenborough

Genres: Drama | Music | Musical

Plot:
A director is casting dancers for a large production. Large numbers of hopefulls audition, hoping
to be selected. Throughout the day, more and more people are eliminated, and the competition gets
harder. Eventually, approximately a dozen dancers must compete for a few spots, each hoping to
impress the director with their dancing skill. But, is this really what the director is looking
for?

Cast:
Michael Blevins	...	Mark Tobori
Yamil Borges	...	Diana Morales
Jan Gan Boyd	...	Connie Wong
Sharon Brown	...	Kim
Gregg Burge	...	Richie Walters
Michael Douglas	...	Zach
Cameron English	...	Paul San Marco
Tony Fields	...	Al DeLuca
Nicole Fosse	...	Sheila Bryant
Vicki Frederick	...	Beatrice Ann 'Bebe' Benson
Michelle Johnston	...	Judy Monroe
Janet Jones	...	Maggie Winslow
Pam Klinger	...	Val Clarke
Audrey Landers	...	Larry
Terrence Mann	...	Mike Cass

Stats:
Format                                   : AVI
Format/Info                              : Audio Video Interleave
Format profile                           : OpenDML
File size                                : 1.36 GiB
Duration                                 : 1h 57mn
Overall bit rate                         : 1 660 Kbps

Video
ID                                       : 0
Format                                   : MPEG-4 Visual
Format profile                           : Advanced Simple@L5
Format settings, BVOP                    : 1
Format settings, QPel                    : No
Format settings, GMC                     : No warppoints
Format settings, Matrix                  : Default (MPEG)
Codec ID                                 : XVID
Codec ID/Hint                            : XviD
Duration                                 : 1h 57mn
Bit rate                                 : 1461 Kbps
Width                                    : 640 pixels
Height                                   : 272 pixels
Display aspect ratio                     : 2.35:1
Frame rate                               : 23.976 fps
Color space                              : YUV
Chroma subsampling                       : 4:2:0
Bit depth                                : 8 bits
Scan type                                : Progressive
Compression mode                         : Lossy
Bits/(Pixel*Frame)                       : 0.350
Stream size                              : 1229 MiB (88%)
Writing library                          : XviD 64

Audio
ID                                       : 1
Format                                   : AC-3
Format/Info                              : Audio Coding 3
Codec ID                                 : 2000
Duration                                 : 1h 57mn
Bit rate mode                            : Constant
Bit rate                                 : 192 Kbps
Channel(s)                               : 2 channels
Sampling rate                            : 48.0 KHz
Bit depth                                : 16 bits
Compression mode                         : Lossy
Stream size                              : 162 MiB (12%)
Alignment                                : Aligned on interleaves



Release notes:
Enjoy!

Looking for:
75TB+ Archives
DUTCH/FLEMiSH Archives
                                                                                                    
Greets: CRBS EPiSODE FiCO FLS iLS KLASSiGER LiPSYNC MADE NODLABS RUNNER SPRiNTER      
   

                                                                    ASCII DONE BY XX^NFO 2oo9     
 

RLS-Crc: 415243414445:42EECD90